<?xml version="1.0" encoding="utf-8"?>
<!-- Generator: Adobe Illustrator 27.5.0, SVG Export Plug-In . SVG Version: 6.00 Build 0)  -->
<svg version="1.1" id="Layer_1" xmlns="http://www.w3.org/2000/svg" xmlns:xlink="http://www.w3.org/1999/xlink" x="0px" y="0px"
	 viewBox="0 0 4000 9000" style="enable-background:new 0 0 4000 9000;" xml:space="preserve">
<g>
	<rect style="fill-rule:evenodd;clip-rule:evenodd;fill:#FCFCFC;" width="4000" height="9000"/>
	<g>
		<defs>
			<path id="SVGID_1_" d="M588.466,9000c9.561-251.629,75.853-545.377,221.495-889.008
				c440.5-1039.314,564.296-1658.991,405.784-2001.855C1062.669,5778.016,647.128,5705.136,0,5762.1v4.959
				c645.164-56.847,1059.26,15.338,1211.262,344.144c157.885,341.512,34.067,959.948-405.851,1997.88
				C659.477,8453.414,593.006,8747.794,583.378,9000H588.466z M638.519,9000c-2.81-268.87,61.248-588.585,222.71-969.525
				c440.5-1039.316,564.296-1658.993,405.778-2001.858C1109.935,5688.834,676.476,5620.978,0,5686.319v4.966
				c674.517-65.2,1106.531,1.969,1262.524,339.4c157.885,341.512,34.072,959.948-405.846,1997.877
				C694.937,8410.182,630.677,8730.538,633.409,9000H638.519z M692.687,9000c-17.783-284.922,41.92-630.34,219.805-1050.044
				c440.5-1039.314,564.301-1658.991,405.784-2001.855c-158.752-343.41-599.779-409.077-1288.721-340.18L0,5610.851v4.966
				l30.037-2.983c686.709-68.671,1126.128-3.634,1283.756,337.332c157.885,341.514,34.067,959.948-405.846,1997.88
				C729.776,8368.417,669.877,8714.473,687.543,9000H692.687z M751.271,9000c-35.449-299.696,17.481-670.473,212.489-1130.562
				c440.5-1039.317,564.296-1658.994,405.778-2001.855c-158.752-343.41-599.779-409.077-1288.715-340.18
				c-27.54,2.753-54.442,5.393-80.823,7.928v4.959c26.527-2.547,53.602-5.207,81.305-7.974
				c686.709-68.671,1126.128-3.634,1283.756,337.332c157.879,341.512,34.067,959.948-405.851,1997.877
				C763.938,8328.252,710.773,8699.673,746.076,9000H751.271z M814.423,9000c-55.892-313.063-12.242-708.891,200.6-1211.081
				c440.506-1039.314,564.301-1658.991,405.784-2001.855c-158.758-343.41-599.784-409.077-1288.721-340.18
				c-45.648,4.563-89.6,8.82-132.086,12.759v4.957c42.648-3.943,86.751-8.219,132.567-12.803
				c686.709-68.67,1126.134-3.631,1283.756,337.334c157.885,341.512,34.067,959.946-405.846,1997.877
				C797.372,8289.805,753.443,8686.286,809.15,9000H814.423z M882.612,9000c-79.239-324.905-47.842-745.356,183.678-1291.599
				c440.5-1039.316,564.296-1658.993,405.784-2001.855c-158.758-343.411-599.784-409.077-1288.721-340.18
				c-64.271,6.427-125.318,12.283-183.354,17.405v4.959c58.192-5.136,119.402-11.01,183.835-17.45
				c686.709-68.67,1126.128-3.634,1283.75,337.332c157.885,341.512,34.072,959.948-405.845,1997.877
				C829.99,8253.286,798.246,8674.411,877.244,9000H882.612z M956.31,9000c-105.587-335.083-89.88-779.613,161.249-1372.118
				c440.494-1039.314,564.296-1658.991,405.778-2001.855c-158.752-343.411-599.784-409.078-1288.715-340.18
				C151.101,5294.199,73.054,5301.582,0,5307.64v4.952c73.216-6.071,151.431-13.468,235.098-21.832
				c686.709-68.67,1126.134-3.632,1283.756,337.334c157.885,341.512,34.067,959.945-405.846,1997.877
				C861.672,8218.97,845.534,8664.188,950.83,9000H956.31z M1036.075,9000c-135.069-343.436-139.049-811.368,132.746-1452.635
				c440.5-1039.314,564.296-1658.991,405.784-2001.855c-158.758-343.41-599.784-409.077-1288.721-340.18
				C182.525,5215.663,87.451,5224.541,0,5231.208v4.959c87.619-6.688,182.861-15.573,286.366-25.924
				c686.709-68.67,1126.128-3.634,1283.75,337.332c157.885,341.512,34.072,959.948-405.845,1997.879
				C892.296,8187.149,895.738,8655.785,1030.449,9000H1036.075z M1122.451,9000c-167.764-349.745-196.043-840.264,97.638-1533.153
				c440.5-1039.316,564.296-1658.993,405.778-2001.857c-158.752-343.408-599.779-409.077-1288.721-340.18
				C213.222,5137.205,101.215,5147.481,0,5154.389v4.959c101.4-6.922,213.569-17.216,337.628-29.625
				c686.709-68.668,1126.128-3.632,1283.756,337.334c157.885,341.512,34.067,959.948-405.846,1997.877
				C921.717,8158.17,949.357,8649.409,1116.663,9000H1122.451z M1216.07,9000c-203.684-353.775-261.658-865.903,55.281-1613.672
				c440.5-1039.314,564.296-1658.991,405.784-2001.855c-158.758-343.41-599.784-409.077-1288.721-340.179
				c-145.212,14.52-274.163,26.179-388.415,32.853v4.967c114.448-6.702,243.567-18.375,388.896-32.906
				c686.709-68.67,1126.128-3.634,1283.756,337.332c157.885,341.514,34.067,959.948-405.851,1997.88
				C949.766,8132.427,1006.956,8645.303,1210.097,9000H1216.07z M1317.957,9000c-242.884-355.236-337.186-887.644,4.657-1694.189
				c440.506-1039.316,564.301-1658.993,405.784-2001.855c-158.752-343.41-599.779-409.077-1288.721-340.179
				C272.293,4980.51,126.572,4993.423,0,4999.311v4.959c126.79-5.913,272.674-18.835,440.159-35.581
				c686.709-68.67,1126.134-3.634,1283.756,337.332c157.885,341.512,34.072,959.948-405.846,1997.877
				c-341.877,806.612-248.638,1339.85-6.415,1696.102H1317.957z M1428.968,9000c-285.213-353.748-423.769-904.839-55.086-1774.709
				c440.5-1039.314,564.296-1658.991,405.784-2001.855c-158.758-343.41-599.784-409.077-1288.721-340.18
				c-190.479,19.051-352.898,33.14-490.945,37.553v4.971c138.288-4.446,300.886-18.555,491.427-37.61
				c686.709-68.671,1126.128-3.632,1283.756,337.334c157.879,341.512,34.067,959.946-405.851,1997.878
				c-368.65,869.79-231.392,1421.733,53.093,1776.619H1428.968z M1550.737,9000c-330.519-348.842-523.534-916.337-125.587-1855.226
				c440.5-1039.317,564.296-1658.991,405.778-2001.855c-158.752-343.411-599.779-409.077-1288.715-340.18
				C327.625,4824.199,148.61,4839.379,0,4841.493v4.991c148.884-2.171,328.084-17.372,542.695-38.832
				c686.703-68.671,1126.128-3.634,1283.75,337.332c157.885,341.512,34.067,959.948-405.846,1997.877
				C1022.797,8081.42,1214.066,8649.872,1543.757,9000H1550.737z M1684.765,9000c-378.149-339.886-638.519-920.822-208.352-1935.746
				c440.5-1039.314,564.296-1658.991,405.784-2001.855c-158.758-343.408-599.784-409.077-1288.721-340.18
				C353.609,4746.201,158.153,4762.358,0,4761.164v5.017c158.484,1.117,354.124-15.066,593.957-39.048
				c686.709-68.67,1126.128-3.631,1283.75,337.334c157.885,341.512,34.072,959.946-405.845,1997.877
				C1042.02,8076.521,1299.933,8658.633,1677.135,9000H1684.765z M1833.313,9000c-426.909-326.031-771.881-916.22-305.632-2016.263
				c440.5-1039.314,564.296-1658.991,405.778-2001.855c-158.752-343.41-599.779-409.077-1288.715-340.18
				C378.272,4668.348,166.589,4685.331,0,4679.585v5.056c166.964,5.622,378.843-11.393,645.225-38.025
				c686.703-68.67,1126.128-3.634,1283.75,337.332c157.885,341.512,34.067,959.948-405.846,1997.88
				C1057.379,8080.705,1399.099,8672.24,1825.096,9000H1833.313z M1999.264,9000c-474.242-306.084-927.801-899.439-420.321-2096.78
				c440.5-1039.317,564.301-1658.993,405.784-2001.855c-158.758-343.41-599.784-409.08-1288.721-340.182
				C401.401,4590.644,173.765,4608.296,0,4596.468v5.088c174.202,11.661,402.045-6.019,696.488-35.46
				c686.709-68.668,1126.128-3.632,1283.756,337.334c157.885,341.512,34.067,959.948-405.846,1997.877
				C1067.696,8096.805,1516.67,8691.861,1990.168,9000H1999.264z M2186.928,9000c-514.64-278.19-1112.957-864.936-556.717-2177.3
				c440.5-1039.314,564.296-1658.991,405.778-2001.855c-158.752-343.41-599.779-409.077-1288.715-340.18
				C422.761,4513.114,179.48,4531.248,0,4511.42v5.152c180.006,19.59,423.495,1.431,747.75-30.994
				c686.714-68.67,1126.134-3.634,1283.756,337.335c157.885,341.511,34.072,959.945-405.846,1997.877
				c-554.97,1309.375,36.457,1898.486,550.918,2179.21H2186.928z M2401.852,9000
				c-534.203-239.408-1337.235-802.433-720.378-2257.817c440.5-1039.316,564.296-1658.993,405.784-2001.855
				c-158.758-343.41-599.784-409.078-1288.721-340.18c-356.497,35.647-615.01,54.04-798.537,23.773v5.296
				c184.154,29.909,442.935,11.452,799.018-24.157c686.709-68.67,1126.134-3.634,1283.756,337.332
				c157.885,341.512,34.067,959.948-405.846,1997.877C1062.165,8190.723,1854.097,8757.361,2389.89,9000H2401.852z M0,4338.587
				c186.36,43.375,459.772,25.002,850.286-14.046c686.703-68.67,1126.128-3.632,1283.75,337.334
				c157.885,341.512,34.072,959.945-405.846,1997.877c-639.986,1509.966,244.591,2062.173,777.563,2288.066
				c46.622,19.764,90.518,37.012,130.457,52.181h13.96c-43.152-16.268-91.223-34.997-142.508-56.729
				c-531.326-225.198-1413.16-775.769-774.921-2281.607c440.5-1039.314,564.296-1658.991,405.784-2001.855
				c-158.758-343.41-599.784-409.077-1288.721-340.179c-391.062,39.105-664.212,57.44-849.805,13.564V4338.587z"/>
		</defs>
		<clipPath id="SVGID_00000178889889304798322350000014196319953983520406_">
			<use xlink:href="#SVGID_1_"  style="overflow:visible;"/>
		</clipPath>
		
			<linearGradient id="SVGID_00000137820442249778808110000008901402583379286431_" gradientUnits="userSpaceOnUse" x1="3029.9312" y1="3791.957" x2="-31.1359" y2="8879.3682">
			<stop  offset="0" style="stop-color:#FFFB90"/>
			<stop  offset="0.12" style="stop-color:#965F00"/>
			<stop  offset="0.24" style="stop-color:#FBEC7A"/>
			<stop  offset="0.31" style="stop-color:#F8DC65"/>
			<stop  offset="0.4" style="stop-color:#C8A443"/>
			<stop  offset="0.49" style="stop-color:#996C22"/>
			<stop  offset="0.62" style="stop-color:#CAAA4D"/>
			<stop  offset="0.69" style="stop-color:#FBE878"/>
			<stop  offset="0.73" style="stop-color:#FDF491"/>
			<stop  offset="0.77" style="stop-color:#FFFFAA"/>
			<stop  offset="0.8" style="stop-color:#FDF491"/>
			<stop  offset="0.83" style="stop-color:#FBE878"/>
			<stop  offset="0.92" style="stop-color:#D0A549"/>
			<stop  offset="1" style="stop-color:#A4631B"/>
		</linearGradient>
		
			<rect y="4250.73" style="clip-path:url(#SVGID_00000178889889304798322350000014196319953983520406_);fill:url(#SVGID_00000137820442249778808110000008901402583379286431_);" width="2650.171" height="4749.27"/>
	</g>
	<g>
		<defs>
			<path id="SVGID_00000038397151832333455820000004302842555063721915_" d="M4000,898.165v6.181
				c-285.744,219.229-425.04,439.762-383.209,692.878c30.064,181.97,153.586,380.954,383.209,608.536v6.823
				c-232.657-229.843-357.718-430.758-388.084-614.548C3569.609,1341.948,3710.735,1119.324,4000,898.165 M4000,796.492v6.005
				c-344.524,240.639-516.756,479.165-470.867,756.933c33.686,203.905,184.675,429.16,470.867,692.092v6.589
				c-289.226-265.094-441.76-492.201-475.737-697.867C3477.876,1279.493,3651.944,1038.963,4000,796.492z M4000,699.882v5.881
				c-402.717,260.93-608.164,515.45-558.519,815.882c36.978,223.785,215.265,473.302,558.519,770.119v6.454
				c-346.315-298.931-526.126-550.233-563.389-775.768C3386.479,1219.023,3593.768,962.58,4000,699.882z M4000,607.172v5.785
				c-460.265,280.478-699.292,549.394-646.171,870.895c40,242.113,245.391,514.344,646.171,844.01v6.335
				c-403.87-331.731-610.761-605.689-651.041-849.538C3295.334,1160.127,3536.225,889.34,4000,607.172z M4000,517.406v5.7
				c-517.36,299.548-790.224,581.624-733.823,922.954c42.81,259.178,275.159,552.858,733.823,914.57v6.239
				c-461.765-363.719-695.598-659.094-738.699-919.997C3204.396,1102.466,3479.141,818.597,4000,517.406z M4000,430.037v5.647
				c-573.968,318.309-880.978,612.456-821.481,972.581c45.463,275.196,304.603,589.3,821.481,982.429v6.154
				c-519.969-395.092-780.602-710.853-826.357-987.768C3113.632,1045.84,3422.556,749.945,4000,430.037z M4000,344.353v5.626
				l-36.843,20.032c-606.607,329.11-933.522,629.854-872.29,1000.471c47.965,290.344,333.704,623.978,909.133,1048.061v6.084
				c-578.497-425.995-865.752-761.268-914.003-1053.334c-61.668-373.274,266.22-675.439,874.792-1005.618L4000,344.353z
				 M4000,258.452v5.642c-39.799,22.013-81.299,44.682-124.507,68.123c-606.596,329.119-933.516,629.854-872.279,1000.47
				c50.344,304.713,362.644,657.124,996.786,1111.722v6.057c-637.238-456.482-951.031-810.512-1001.656-1116.973
				c-61.679-373.268,266.22-675.434,874.792-1005.611C3917.207,303.972,3959.49,280.868,4000,258.452z M4000,171.615v5.682
				c-65.475,37.04-136.161,75.897-212.159,117.128c-606.602,329.117-933.522,629.861-872.279,1000.47
				c52.611,318.447,391.264,688.971,1084.438,1173.802v6.025c-696.303-486.689-1036.422-858.807-1089.313-1179.015
				c-61.674-373.266,266.22-675.432,874.803-1005.611C3862.417,248.352,3933.898,209.052,4000,171.615z M4000,83.415v5.735
				c-88.716,51.901-188.632,107.163-299.805,167.481c-606.608,329.119-933.528,629.861-872.296,1000.471
				c54.783,331.595,419.722,719.648,1172.101,1234.426v5.968c-755.469-516.594-1121.897-906.226-1176.966-1239.583
				c-61.674-373.267,266.22-675.433,874.792-1005.609C3810.058,191.414,3910.758,135.702,4000,83.415z M3988.62,0h7.372l0.621,0.921
				c-108.195,66.357-236.127,137.66-384.077,217.925c-606.602,329.11-933.516,629.861-872.29,1000.463
				c56.877,344.215,447.99,749.296,1259.753,1293.784v5.934c-814.859-546.276-1207.461-952.909-1264.623-1298.899
				c-61.668-373.273,266.22-675.435,874.798-1005.618C3755.667,135.573,3881.729,65.355,3988.62,0z M3837.984,0h9.734
				c-94.33,55.822-201.898,115.438-322.833,181.053c-606.608,329.119-933.522,629.854-872.285,1000.47
				c58.875,356.382,476.05,777.997,1347.4,1352.043v5.902c-874.451-575.796-1293.104-998.95-1352.275-1357.133
				c-61.668-373.273,266.22-675.439,874.798-1005.615C3640.39,112.774,3745.496,54.554,3837.984,0z M3685.316,0h9.924
				c-77.963,44.819-163.947,92.228-258.008,143.268c-606.608,329.11-933.528,629.854-872.285,1000.464
				c60.818,368.126,503.932,805.863,1435.052,1409.304v5.883c-934.227-605.163-1378.808-1044.429-1439.922-1414.376
				c-61.685-373.267,266.209-675.433,874.792-1005.611C3525.943,89.518,3609.408,43.523,3685.316,0z M3530.986,0h10.104
				c-59.625,33.522-123.454,68.546-191.509,105.474c-606.602,329.119-933.522,629.854-872.296,1000.471
				c61.338,371.208,511.287,813.163,1458.467,1424.469c21.914,14.149,43.236,28.317,64.249,42.492v5.954
				c-21.87-14.786-44.081-29.554-66.941-44.305c-948.434-612.125-1399.077-1055.116-1460.633-1427.805
				c-61.68-373.267,266.209-675.432,874.787-1005.609C3412.351,65.791,3473.605,32.197,3530.986,0z M3375.424,0h10.199
				c-39.564,21.875-80.784,44.394-123.701,67.682c-606.608,329.11-933.522,629.861-872.285,1000.468
				c61.327,371.208,511.281,813.172,1458.456,1424.471c53.345,34.433,103.846,68.962,151.906,103.557v6.096
				c-48.861-35.251-100.236-70.431-154.594-105.515c-948.434-612.125-1399.077-1055.121-1460.644-1427.803
				c-61.668-373.259,266.226-675.427,874.792-1005.604C3299.65,41.6,3338.273,20.504,3375.424,0z M3218.877,0h10.305
				c-17.991,9.827-36.295,19.782-54.912,29.888c-606.608,329.119-933.522,629.861-872.285,1000.471
				c61.327,371.212,511.287,813.17,1458.456,1424.475c86.869,56.063,166.516,112.385,239.559,168.83v6.284
				c-73.759-57.161-154.28-114.198-242.251-170.974c-948.428-612.124-1399.065-1055.122-1460.639-1427.804
				c-61.674-373.267,266.226-675.433,874.798-1005.616C3187.8,16.936,3203.45,8.417,3218.877,0z M3061.838,0h10.316
				c-597.299,326.031-918.577,624.927-857.826,992.567c61.327,371.213,511.292,813.175,1458.467,1424.476
				c123.034,79.405,231.504,159.333,327.205,239.383v6.468c-96.306-80.832-205.671-161.54-329.903-241.72
				C2721.668,1809.057,2271.031,1366.06,2209.464,993.379C2148.551,624.719,2467.662,325.426,3061.838,0z M2906.231,0h10.02
				c-553.42,311.518-847.963,601.38-789.57,954.78c61.327,371.212,511.281,813.17,1458.45,1424.476
				c162.245,104.708,299.397,210.313,414.869,315.945v6.732c-115.937-106.494-253.972-212.971-417.55-318.543
				C2634.01,1771.27,2183.368,1328.273,2121.806,955.591C2063.255,601.251,2355.806,310.979,2906.231,0z M2762.615,0
				c-510.694,297.337-779.617,577.912-723.597,916.986c61.327,371.208,511.292,813.166,1458.461,1424.471
				c205.514,132.641,370.732,266.713,502.521,400.459v7.124c-132.091-134.727-298.154-269.814-505.208-403.444
				C2546.358,1733.471,2095.71,1290.482,2034.148,917.793C1977.982,577.84,2244.986,296.869,2752.813,0H2762.615z"/>
		</defs>
		<clipPath id="SVGID_00000161599444241130077960000013792443914731513019_">
			<use xlink:href="#SVGID_00000038397151832333455820000004302842555063721915_"  style="overflow:visible;"/>
		</clipPath>
		
			<linearGradient id="SVGID_00000098202862244222151250000017187610245371253390_" gradientUnits="userSpaceOnUse" x1="4267.5659" y1="-292.9924" x2="1988.3325" y2="2679.5745">
			<stop  offset="0" style="stop-color:#FFFB90"/>
			<stop  offset="0.12" style="stop-color:#965F00"/>
			<stop  offset="0.24" style="stop-color:#FBEC7A"/>
			<stop  offset="0.31" style="stop-color:#F8DC65"/>
			<stop  offset="0.4" style="stop-color:#C8A443"/>
			<stop  offset="0.49" style="stop-color:#996C22"/>
			<stop  offset="0.62" style="stop-color:#CAAA4D"/>
			<stop  offset="0.69" style="stop-color:#FBE878"/>
			<stop  offset="0.73" style="stop-color:#FDF491"/>
			<stop  offset="0.77" style="stop-color:#FFFFAA"/>
			<stop  offset="0.8" style="stop-color:#FDF491"/>
			<stop  offset="0.83" style="stop-color:#FBE878"/>
			<stop  offset="0.92" style="stop-color:#D0A549"/>
			<stop  offset="1" style="stop-color:#A4631B"/>
		</linearGradient>
		
			<rect x="1977.982" y="0" style="clip-path:url(#SVGID_00000161599444241130077960000013792443914731513019_);fill:url(#SVGID_00000098202862244222151250000017187610245371253390_);" width="2022.018" height="2749.039"/>
	</g>
</g>
</svg>
